<?xml version="1.0" encoding="utf-8"?>
<!-- Generator: Adobe Illustrator 28.2.0, SVG Export Plug-In . SVG Version: 6.00 Build 0)  -->
<svg version="1.1" id="Capa_1" xmlns="http://www.w3.org/2000/svg" xmlns:xlink="http://www.w3.org/1999/xlink" x="0px" y="0px"
	 viewBox="0 0 500 372.8" style="enable-background:new 0 0 500 372.8;" xml:space="preserve">
<style type="text/css">
	.st0{fill:#1434CC;}
</style>
<g>
	<path class="st0" d="M157.6,274c1-0.9,1.6-1.4,2.1-1.9c5.3-5.1,11.7-7.7,18.9-8.2c3.4-0.2,6.8-0.3,10.3-0.4
		c2.9-0.1,5.7-0.7,8.5-1.6c4.1-1.4,7.6-3.7,10.2-7.2c1-1.3,1.9-2.7,2.9-4.1c0.5-0.6,0.9-1.2,1.4-1.9c1.5,0.6,2.5,1.6,3.6,2.6
		c-0.1,0.5-0.2,1-0.4,1.5c-1.2,2.9-2.5,5.8-4.3,8.4c-1.5,2.1-3.3,3.9-5.7,5c-2.2,1.1-4.4,2.3-6.5,3.5c-3,1.6-6,2.2-9.4,1.5
		c-2.9-0.6-5.8-1.1-8.9-1.2c-3.6-0.1-6.6,0.8-9,3.5c-0.7,0.8-1.5,1.5-2.3,2.1c-1.5,1.2-3.1,2.3-4.9,3c-2.2,0.9-4.4,1.3-6.7,0.5
		c-0.5-0.2-1-0.2-1.5-0.4c-1.4-0.4-2.6,0-3.5,1.1c-0.6,0.7-1.1,1.6-1.7,2.4c-0.6,0.9-1.1,1.8-1.7,2.7c-1.7,2.4-4.1,3.6-7,3.6
		c-2.8-0.1-5.5-0.8-8.2-1.5c-0.1-0.4-0.2-0.7-0.2-0.9c0.5-2.2,1.1-4.4,1.7-6.6c0.2-0.8,0.8-1.6,1.2-2.3c0.4-0.7,1-1.2,1.9-1.3
		c2-0.2,3.5-1.3,4.5-2.9c2.8-4.3,2.9-3.4,6.2-5.5c0.7-0.5,1.5-1,2.2-1.5c1.6-1.2,2.9-2.8,3.7-4.7c0.6-1.6,1.2-3.1,1.9-4.6
		c0.3-0.8,0.7-1.6,1.1-2.4c0.6-1.1,1.4-1.7,2.7-1.8c1.2-0.1,2.4-0.3,3.7-0.3c3.7-0.2,6.9-1.9,9.9-4c1.6-1.1,1.8-2.1,1.2-3.9
		c-0.5-1.6-1.2-3.1-1.8-4.7c-0.9-2.4-1.4-4.9-1.5-7.5c0-2.7-0.2-5.4-0.6-8c-0.8-0.6-1.5-0.3-2.1-0.1c-2,0.4-3.9,0.9-5.9,1.2
		c-7.4,0.8-14-1-19.4-6.2c-4.8-4.6-6.2-10.5-5.5-16.9c0.4-3.9,2-7.2,4.7-10.1c3-3.3,6.3-6.3,9.8-9.2c1.3-1.1,2.6-2.1,3.8-3.2
		c1.5-1.3,1.2-3-0.7-3.7c-0.8-0.3-1.7-0.4-2.6-0.5c-1.1-0.1-2.3-0.1-3.4,0c-1.8,0.1-3.5-0.4-5.1-1.2c-4.7-2.6-7.9-6.4-9.1-11.7
		c-0.7-2.8-0.2-5.4,1.4-7.7c1.1,0,1.8,0.6,2.5,1.1c1.4,0.9,2.8,1.9,4.2,2.8c1.8,1.2,3.8,1.8,5.9,2.2c2.9,0.5,5.9,1.1,8.7,2.1
		c1.8,0.7,3.6,1.5,5.2,2.4c4.9,2.8,6,9.9,2.9,14.4c-0.9,1.2-1.8,2.4-2.9,3.4c-2.5,2.3-5.1,4.6-7.7,6.9c-1.5,1.3-3,2.7-4.5,4.1
		c-1.4,1.3-2.4,2.8-3.3,4.4c-1.5,2.8-1.8,5.9-1.3,9c0.5,2.8,2.1,5,4.3,6.7c3.3,2.6,7,3,11,2.4c2.1-0.4,4.1-1,6-1.9
		c4-1.8,7.8-4,11.4-6.6c2.1-1.6,4.2-3.2,6.3-4.8c1.2-0.9,2.5-1.7,3.7-2.5c3.9-2.6,8.3-3.8,12.9-4.1c1.8-0.1,3.5-0.3,5.2-0.6
		c2.9-0.5,5.6-1.6,8-3.3c2.3-1.7,4.6-3.5,6.8-5.4c3.1-2.6,6.4-4.6,10.3-5.6c2.2-0.6,4.5-1,6.8-0.8c2.3,0.2,4.1-0.7,5.7-2.2
		c1.1-1.1,2.3-2.2,3.5-3.3c2.6-2.5,5.5-4.3,8.9-5.5c2.1-0.8,4.1-1.5,6.2-2.1c5.8-1.7,11.2-4.1,16.2-7.5c1.9-1.3,3.8-2.5,6.1-3.1
		c6-1.7,11.7-1,17.1,2c1.9,1.1,3.8,2.3,5.5,3.7c6.2,5.1,12.3,10.2,18.5,15.3c1.5,1.2,2.9,2.6,4.1,4c4.9,5.7,9.6,11.5,13.9,17.6
		c2,2.7,3.6,5.6,4.5,8.9c0.3,1.2,0.7,2.4,0.8,3.6c0.6,6.9,2,13.6,4,20.1c1.1,3.5,2.3,7,3.5,10.5c0.4,1.3,1.1,2.4,2.1,3.2
		c2,1.6,3.3,3.6,4.6,5.7c1,1.7,2.1,3.5,3.2,5.1c1.7,2.6,3.9,4.7,6.8,6c0.5,0.2,0.9,0.5,1.4,0.7c0.5,0.3,0.8,0.7,0.8,1.3
		c0,0.7-0.6,1-1.2,1.2c-1.1,0.4-2.2,0.4-3.4,0.2c-5-1-8.9-3.7-11.6-8c-0.9-1.5-1.8-3-2.8-4.5c-1.2-1.8-2.7-3.3-4.5-4.3
		c-0.3-0.2-0.6-0.2-1.3-0.5c0.6,0.9,0.9,1.5,1.3,2.1c2,3,3.7,6.2,4.8,9.6c0.6,1.8,1.6,3.3,3,4.5c1.7,1.5,3.6,2.8,5.6,3.9
		c1,0.5,2,1.1,3,1.7c0.6,0.3,0.9,0.9,0.7,1.6c-0.2,0.7-0.8,1-1.4,1c-0.9,0.1-1.8,0.1-2.6,0c-5.8-0.4-10.9-2.5-15.1-6.7
		c-0.9-0.9-1.8-1.6-2.8-2.3c-0.8-0.6-1.6-0.5-2.4,0.2c-1,0.9-2,1.7-3.1,2.4c-1.1,0.7-2.3,1.3-3.5,1.9c-1.3,0.6-2.7,0.8-4.1,0.5
		c-1.1-0.2-2.3-0.1-3.4-0.2c-3.2-0.2-6.3,0.3-9.3,1.5c-2.8,1.2-5.8,2.1-8.8,2.6c-1.1,0.2-2.3,0.2-3.4-0.2c-1.9-0.6-3.2-1.8-3.4-3.9
		c-0.1-0.9-0.3-1.7-0.5-2.6c-0.4-1.6,0-3,0.8-4.3c0.5-0.8,1.1-1.6,1.6-2.4c0.2-0.3,0.3-0.6,0.4-0.9c-0.8-0.6-1.4,0-2.1,0.1
		c-1,0.1-1.7-0.5-1.7-1.5c0-1.2,0.4-2.3,1.1-3.2c1.1-1.4,2.2-2.7,3.5-3.9c1.3-1.2,2.2-2.4,2.6-4.1c0.4-1.5,1.3-2.9,2-4.3
		c0.3-0.5,0.6-1,0.9-1.5c-0.8-0.6-1.5-0.3-2.1-0.3c-2.3,0.3-4.7,0.6-7,1c-0.7,0.1-1.4,0.3-2,0.6c-1.7,0.7-3.5,1.1-5.4,1.3
		c-0.9,0.1-1.9-0.1-2.8-0.3c-1.1-0.3-1.5-1.3-1.1-2.3c0.3-0.6,0.7-1.2,1-1.8c2.6-4.3,3.5-9,3-13.9c0-0.4-0.3-0.7-0.6-1.6
		c-0.3,1.2-0.6,1.8-0.7,2.5c-0.8,3.8-2.1,7.4-3.9,10.9c-1.2,2.4-2.9,3.9-5.6,4.3c-1.4,0.2-2.7,0.6-4.1,1c-1.9,0.5-2.3,1.3-1.8,3.1
		c0.3,1.1,0.9,2.1,1.4,3.1c1.7,3.2,3.5,6.3,5.3,9.4c1.3,2.3,1.5,4.6,1.1,7.1c-0.2,1.4-0.5,2.8-0.8,4.1c-0.1,0.4-0.1,0.8-0.2,1.6
		c0.5-0.3,0.9-0.4,1-0.7c1.2-1.8,2.4-3.7,3.5-5.6c0.8-1.3,0.8-2.7,0.2-4.1c-0.3-0.7-0.6-1.5-1-2.2c-1.7-3.5-3.5-6.9-5.2-10.4
		c-0.4-0.8-0.7-1.6-1-2.2c0.3-1.1,1-1.4,1.8-1.5c1.9-0.3,3.7,0.2,5.3,1.1c0.3,0.2,0.6,0.6,0.8,1c1.5,4,3.6,7.6,5.8,11.2
		c1.3,2.1,1.4,4.3,0.5,6.6c-1.4,3.4-3.3,6.6-5.4,9.6c-0.7,1.1-1.9,1.6-3.1,1.8c-1.6,0.3-3.1,0.4-4.7,0.5c-1.1,0.1-2.1,0.3-3,0.7
		c-5.5,2.8-11.4,4.7-17.2,6.6c-5.2,1.7-9.6-0.6-12-4.5c-0.6-1-1.2-2-1.7-3c-0.7-1.3-1.7-1.9-3.2-1.9c-4,0.2-3.5,0.2-5.7-3.4
		c-0.9-1.5-1.8-3-2.7-4.6c-0.3-0.6-0.6-1.3-0.8-1.9c-0.2-0.8,0.2-1.6,0.9-2c0.2-0.1,0.5-0.3,0.7-0.3c2.7-0.4,5.4-1,8.1-1.3
		c2.5-0.2,4.7,0.8,6.1,3c1.2,1.8,2.4,3.7,3.4,5.6c0.6,1.2,1.3,2.3,2.3,3.2c1,0.9,2.2,1.5,3.6,1.4c0.7,0,1.4,0,2.1-0.2
		c2.1-0.7,4.1-1.5,6.2-2.3c0.6-0.2,1.1-0.6,1.5-1c2.2-1.7,2.6-3.1,1.9-5.8c-1.1-3.8-3.8-6.5-7.1-8.5c-1.2-0.7-2.5-1.4-3.6-2.2
		c-1.6-1.2-3.2-2.5-4.7-3.8c-2-1.7-3.3-3.9-4-6.4c-0.2-0.8-0.6-1.6-0.8-2.4c-0.9-0.2-1.2,0.3-1.2,0.8c0,0.9,0.1,1.7,0.3,2.6
		c0.2,1,0.5,2,0.7,3.1c0.1,0.9-0.3,1.5-1,2c-1.3,0.7-2.6,1.1-4,1c-2.7-0.2-5.4-0.4-8.1-0.8c-2.8-0.4-5.5-0.9-8.3-1.4
		c-2.9-0.5-5.8,0-8.7,0.4c-2.6,0.3-5.2,1-7.9,0.8c-1-0.1-1.9-0.2-2.8-0.5c-1.9-0.5-3.2-1.7-3.8-3.6c-0.6-1.7-0.9-3.4-1-5.2
		c-0.1-3.4,0.2-6.8,0.9-10.2c0.1-0.6,0.2-1.2-0.6-1.5c-0.7,0.2-0.9,0.8-1,1.4c-0.4,2.2-0.7,4.3-1.1,6.5c-0.5,2.6-0.9,5.2-1.5,7.7
		c-0.8,3.4-2.5,6.3-4.7,9.1c-3,3.8-7,6.1-11.6,7.3c-3.7,1-7.6,1.6-11.5,1.6c-3.8,0-7.5,0.6-11.2,1.6c-4.6,1.3-8.5,3.7-11.6,7.5
		C158,271.8,158,271.8,157.6,274z M343.9,238.1c1.6-0.8,1.7-2.2,1.9-3.4c0.5-3.5-0.8-6.5-2.9-9.3c-1.1-1.4-2.1-2.8-3.1-4.2
		c-0.6-0.8-1.2-1.5-1.9-2.2c-1.2-1-2.7-0.8-3.8,0.4c-0.2,0.3-0.5,0.5-0.6,0.9c-0.8,1.8-1.7,3.6-2.4,5.5c-0.3,1-0.2,2.1-0.3,3.1
		c0,0.3,0.3,0.5,0.6,1c0.5-0.5,0.8-0.9,1.2-1.2c0.5-0.5,0.9-1.1,1.4-1.6c1.5-1.4,2.6-1.5,4.2-0.1c2.7,2.2,4.9,4.8,4.8,8.6
		C343,236.4,343,237.3,343.9,238.1z M300.3,201.2c0.2,0,0.4,0,0.6-0.1c1-3.7,1.2-7.5,0.2-11.3c-0.4-1.4-1.2-2.7-1.9-4
		c-0.3-0.6-0.9-1.1-1.4-1.5c-0.7-0.5-1.9-0.5-2.5-0.1c-0.5,0.4-0.8,1.3-0.4,2.2c0.3,0.6,0.6,1.2,1,1.8c1.1,1.5,1.9,3.1,2.4,4.9
		c0.5,1.8,0.9,3.5,1.4,5.3C299.8,199.4,300,200.3,300.3,201.2z M328.6,259.3c0.7,0.7,1.4,0.9,2.1,0.9c0.9-0.1,1.7-0.1,2.6-0.3
		c2.1-0.4,2.7-1,2.9-3.1c0.1-0.6,0.1-1.2,0-1.8c-0.1-0.8-0.7-1.3-1.5-1.2c-0.8,0.1-1.6,0.3-2.2,0.7
		C330.6,255.4,329.3,257,328.6,259.3z"/>
	<path class="st0" d="M230.9,157.5c1.5,2.6,3.2,4.8,4.8,7.1c1.6,2.3,3.3,4.5,4.6,6.8c-0.5,1-1.2,0.9-1.9,1c-2.1,0.2-4.2,0.4-6.3,0.8
		c-5.6,1.1-10.4,3.8-14.6,7.5c-0.7,0.6-1.3,1.4-2.4,1.6c-0.4-0.5-0.9-1.1-1.2-1.6c-2-3.1-4-6.2-6-9.3c-0.7-1.1-1-2.2-1-3.5
		c0-9.6,0-19.2,0-28.8c0-0.7,0.1-1.4,0.1-2c0.7-0.7,1.6-0.5,2.3-0.6c2.5-0.1,5.1,0,7.6-0.4c6.5-1,11.5-4.3,14.5-10.2
		c3.8-7.6,1.2-16.8-5.9-21.7c-3-2.1-6.4-3.3-10.1-3.3c-4.5,0-9,0-13.5,0c-0.6,0-1.2,0.1-1.9,0.2c-0.1,0.6-0.2,1.1-0.2,1.6
		c0,0.9,0,1.8,0,2.6c0,26.3,0,52.6,0,78.9c0,1,0,1.9-0.1,2.9c0,0.7-0.4,1.1-1.1,1.3c-0.8,0.2-1.5,0.3-2.3,0.5
		c-3.8,0.7-7.2,2.2-10.4,4.3c-2.8,1.8-5.5,3.8-8.2,5.8c-1.5,1.1-2.9,2.3-4.4,3.3c-0.8,0.6-1.7,1.2-2.9,1.4c-0.1-0.5-0.2-0.9-0.2-1.3
		c0-4.2,0-8.4,0-12.7c0-0.9,0.3-1.7,0.9-2.4c0.7-0.8,1.4-1.6,2.1-2.4c4.9-6.2,5-15.7,0.5-22.2c-0.6-0.9-1.4-1.8-2.2-2.6
		c-1-0.8-1.3-1.8-1.2-3c0-0.3,0-0.7,0-1.1c0-25.2,0-50.5,0-75.7c0-1,0.1-2.1,0.1-3.2c0.6-0.1,1.1-0.2,1.6-0.3c0.4,0,0.9,0,1.3,0
		c15.9,0,31.8,0,47.7,0c6.1,0,11.9,1.2,17.3,3.8c12.6,6.1,20.7,15.9,23.3,29.7c3.4,17.8-5.6,34.8-21.1,43.1c-2.2,1.2-4.6,2.2-7,2.9
		C232.5,156.8,231.8,157.2,230.9,157.5z"/>
	<path class="st0" d="M351.4,139.8c1.3,0.7,2.3,1.2,3.4,1.8c3.7,2,7.1,4.3,10.1,7.1c5.5,5.1,8.6,11.5,9.6,18.9
		c0.4,2.7,0.6,5.4,0.5,8.1c-0.3,12.5-5.8,22.4-15.5,30.1c-0.3,0.3-0.8,0.4-1.3,0.7c-0.3-0.6-0.6-1.1-0.8-1.7
		c-1.1-3.4-2.7-6.5-4.8-9.3c-2.7-3.7-5.5-7.3-8.2-11c-0.6-0.8-1.2-1.5-1.7-2.2c0.6-2.3,1.4-4.3,1.8-6.5c1.5-8.3-3.4-17.1-12-19.4
		c-1.8-0.5-3.6-0.6-5.5-0.6c-3.6-0.1-7.2-0.2-10.8,0c-2.3,0.1-3.8-1-5.4-2.3c-0.3-0.2-0.5-0.7-0.6-1.1c-0.1-0.6-0.1-1.2-0.1-1.8
		c0-5.6,0-11.3,0-16.9c0-0.9-0.2-1.9,0.5-3c0.6-0.1,1.2-0.2,1.9-0.2c2.5,0,5.1,0,7.6,0c8.3,0.1,16.1-8,13.6-17.9
		c-1.4-5.6-4.9-9.5-10.5-11.1c-0.8-0.2-1.7-0.4-2.6-0.4c-5.8,0-11.6,0-17.4,0c-0.3,0-0.7,0.1-1,0.1c-0.7,0.7-0.5,1.5-0.5,2.3
		c0,5,0,10,0,15c0,9.1,0,18.1,0,27.2c0,1-0.1,1.9-0.1,3c-0.8-0.1-1.3-0.1-1.9-0.2c-1.3-0.2-2.6-0.5-3.9-0.6
		c-6.5-0.8-12.6,0.4-18.2,3.9c-1.3,0.8-2.5,1.6-3.8,2.4c-0.4,0.3-0.9,0.4-1.6,0.7c-0.1-0.6-0.2-1-0.3-1.4c0-0.7,0-1.4,0-2.1
		c0-23.6,0-47.1,0-70.7c0-1.1-0.2-2.3,0.3-3.3c1-0.6,2.1-0.3,3.1-0.3c12.4,0,24.8,0,37.2,0c4.2,0,8.4-0.1,12.7,0.2
		c5.9,0.3,11.7,1.5,17.2,3.7c9,3.7,15,10.4,18.3,19.4c5,13.5,2.4,25.7-6.8,36.7C353.2,137.9,352.3,138.7,351.4,139.8z"/>
	<path class="st0" d="M289.8,60.6c-0.1-1.2,0.4-2,0.8-2.9c2.8-6.6,5.5-13.3,8.3-19.9c3.1-7.4,6.2-14.7,9.3-22.1
		c0.4-0.9,0.7-1.8,1.2-2.6c0.9-1.6,2.2-2.7,4.1-3.1c0.3-0.1,0.7-0.2,1-0.2c3.5,0,7,0,10.5,0c0.8,0,1.3,0.5,1.4,1.3
		c0.7,3.3,1.4,6.5,2.1,9.8c2.6,12.3,5.1,24.6,7.7,36.8c0.2,0.9,0.5,1.9,0.2,2.9c-1.2,0.6-2.6,0.3-3.8,0.3c-1.4,0.1-2.8,0-4.2,0
		c-1.3,0-2.6,0.2-4.1-0.4c-0.2-0.9-0.5-1.9-0.7-3c-0.2-0.9-0.4-1.9-0.6-2.8c-0.3-1-0.5-1.3-1.7-1.3c-4.7,0-9.5,0-14.2,0
		c-0.2,0-0.5,0.2-0.8,0.3c-1.3,2.2-1.6,4.8-2.9,6.9C301.3,61,292.2,61.1,289.8,60.6z M320.1,42.1c0-2.2-1-7.5-2.9-15.6
		c-0.1-0.3-0.3-0.6-0.5-0.9c-1,1.7-4.4,10.7-5.8,15.3c-0.1,0.4-0.1,0.8-0.2,1.2C312.8,42.6,317.9,42.6,320.1,42.1z"/>
	<path class="st0" d="M208.9,43c0.5-1.2,0.9-2,1.3-2.9c3.6-9,7.1-18,10.6-27c0.3-0.7,0.6-1.3,0.8-2c0.4-1.1,1.1-1.5,2.2-1.5
		c3.6,0,7.2,0,10.8,0c0.4,0,0.8,0.2,1.2,0.3c0.2,1-0.2,1.6-0.5,2.3c-2.5,6-5,12-7.5,18c-3.9,9.3-7.8,18.6-11.7,27.9
		c-0.3,0.8-0.7,1.6-1.1,2.3c-2.3,0.5-11.9,0.5-14.2,0c-0.2-0.7-0.5-1.6-0.7-2.4c-3.2-12.2-6.3-24.3-9.5-36.5c-1.1-4.2-0.9-4.9-6.2-7
		c-2.3-0.9-4.7-1.5-7-2.3c-0.8-0.2-1.5-0.4-2.3-0.6c-0.5-0.1-0.8-0.5-0.7-1c0.1-0.4,0.4-0.8,0.8-0.9c0.5-0.2,1-0.2,1.6-0.2
		c6.4,0,12.8,0,19.3,0c0.3,0,0.5,0,0.8,0c3.7,0.3,5.8,2.2,6.6,5.7c0.4,2,0.8,4,1.1,6c1.3,6.8,2.5,13.6,3.8,20.5
		C208.4,42.2,208.6,42.5,208.9,43z"/>
	<path class="st0" d="M292.7,11.6c0,2.4-0.8,4.7-1.3,7.1c-0.2,1.1-0.1,2.3-1.1,3.3c-0.5-0.1-1.1-0.3-1.6-0.4c-3-1-6.1-1.8-9.3-1.6
		c-1.2,0-2.4,0.3-3.6,0.6c-0.6,0.1-1.2,0.4-1.7,0.8c-2.3,1.5-2.5,3.7-0.4,5.4c1,0.8,2.2,1.5,3.3,2.2c1.7,1,3.4,1.8,5.1,2.8
		c1.6,1,3.2,2.1,4.6,3.4c3.1,2.8,4.3,6.4,3.9,10.5c-0.4,4.6-2.5,8.4-6.1,11.2c-2.7,2.1-5.8,3.4-9.1,4.1c-6.8,1.4-13.6,0.9-20.3-1
		c-0.4-0.1-0.8-0.3-1.2-0.5c-0.2-0.1-0.4-0.3-0.7-0.5c-0.3-1.9,0.5-3.7,0.9-5.6c0.3-1.8,0.6-3.6,1.3-5.4c1-0.2,1.7,0.4,2.5,0.7
		c3.5,1.5,7.2,2.2,11,2.2c1.9,0,3.7-0.4,5.3-1.3c0.9-0.5,1.6-1.1,2-2.1c0.5-1.4,0.4-2.8-0.7-3.9c-0.8-0.7-1.6-1.4-2.5-1.9
		c-1.3-0.8-2.6-1.4-3.9-2.1c-2.4-1.2-4.6-2.6-6.5-4.4c-4.2-3.9-5.2-9-3.2-14.5c1.1-3,3.1-5.3,5.6-7.1c3.4-2.5,7.3-3.8,11.5-4.3
		c4.7-0.5,9.3-0.3,13.8,1.1C290.9,10.5,292,10.6,292.7,11.6z"/>
	<path class="st0" d="M241.5,10.1c2.3-0.6,10.8-0.6,13-0.1c0.5,0.7,0.2,1.5,0,2.3c-1.4,6.5-2.8,13-4.2,19.5
		c-1.9,8.7-3.8,17.5-5.6,26.2c-0.2,0.8-0.4,1.7-0.6,2.4c-2.3,0.5-10.8,0.5-13.1,0c0-0.6-0.1-1.2,0-1.7c1.7-8.2,3.5-16.5,5.3-24.7
		c1.5-7,3-14.1,4.5-21.1C241,12.1,241.3,11.1,241.5,10.1z"/>
	<path class="st0" d="M198.4,305.7c1.2,0.8,2.3,1.4,3.2,2.2c0.9,0.7,0.9,1.4,0.2,2.3c-0.2,0.3-0.5,0.5-0.7,0.8
		c-0.7,0.7-1.5,0.9-2.4,0.4c-0.7-0.4-1.4-0.7-2.1-1.1c-1.1-0.5-2.2-0.6-3.3-0.4c-0.5,0.1-1,0.3-1.4,0.6c-0.5,0.4-0.5,1.3,0,1.6
		c0.6,0.4,1.2,0.7,1.8,1c1.3,0.6,2.6,1,3.9,1.6c2.2,1.1,3.7,2.7,3.5,5.4c-0.1,2.6-1.4,4.5-3.8,5.6c-1,0.5-2.1,0.8-3.3,1.2
		c-0.1,0.1-0.2,0.1-0.3,0.3c-1.1,2.1-1.7,2.3-4,2.1c-1.2-0.1-1.6-0.6-1.7-1.9c0-0.3,0-0.7,0-1.1c-0.8-0.4-1.6-0.8-2.3-1.3
		c-0.6-0.4-1.3-0.9-1.8-1.5c-0.4-0.4-0.4-1-0.1-1.5c0.2-0.4,0.5-0.7,0.8-1c0.9-0.9,1.6-1.4,3-0.3c1.4,1.1,3.1,1.6,4.9,1.5
		c0.4,0,0.9-0.1,1.3-0.2c0.6-0.2,1.1-0.5,1.2-1.2c0.1-0.7-0.2-1.2-0.8-1.5c-0.8-0.4-1.6-0.7-2.4-1.1c-1.2-0.6-2.5-1-3.5-1.7
		c-3.6-2.4-3.6-7.3,0.1-9.7c0.9-0.6,1.9-0.8,2.9-1.2c0.8-0.3,1.5-0.5,1.8-1.4c0.4-1.3,1.5-1.6,2.7-1.6c0.4,0,0.7,0,1.1,0.1
		c1.2,0.2,1.6,0.7,1.6,2C198.5,304.8,198.5,305.2,198.4,305.7z"/>
	<path class="st0" d="M310.3,321.2c-2.2-0.3-4.5-0.2-6.9-0.1c-0.4,1.1-0.9,2.2-1.2,3.2c-0.4,1.1-1,1.6-2.2,1.5c-0.4,0-0.9,0-1.3-0.1
		c-0.7-0.1-1.1-0.7-0.9-1.3c0.1-0.6,0.3-1.2,0.6-1.8c1.8-4.9,3.6-9.7,5.4-14.6c0.9-2.5,1-2.5,3.9-2.5c1.3,0,1.9,0.5,2.4,1.7
		c2,5.5,4.1,11,6.1,16.6c0.1,0.2,0.1,0.3,0.2,0.5c0.2,0.8-0.2,1.4-1,1.5c-0.4,0.1-0.9,0-1.3,0.1c-1.1,0.1-1.8-0.5-2.2-1.5
		C311.3,323.3,311.1,322.1,310.3,321.2z M309.2,317.1c-0.5-2.3-1.2-4.4-2.2-6.9c-0.9,2.1-1.4,3.8-2,5.5c-0.2,0.5-0.4,1,0.1,1.6
		C306.4,317.4,307.7,317.5,309.2,317.1z"/>
	<path class="st0" d="M318,311.1c1.4-0.3,2.7-0.5,3.9,0.6c0.5-0.2,1.1-0.5,1.6-0.7c2.9-1.3,6.5,0.1,8,2.7c1.7,3.2,1.7,6.4-0.2,9.5
		c-1.7,2.7-4.4,3.4-7.6,2.6c-0.3-0.1-0.6-0.3-1-0.4c-0.2-0.1-0.5-0.1-0.8-0.1c-0.5,0.8-0.2,1.7-0.3,2.6c0,0.6,0,1.2-0.1,1.8
		c-0.1,0.5-0.5,0.9-1.1,1c-0.8,0.1-1.6,0.1-2.4-0.3c-0.1-0.5-0.3-1.1-0.3-1.7C317.3,324.3,317.5,313.2,318,311.1z M328.4,318.5
		c0-0.6,0-0.9-0.1-1.3c-0.2-1.9-1.6-3.3-3.2-3.3c-1.6,0-3.2,1.2-3.4,3.1c-0.1,1-0.1,2.1,0.1,3.1c0.4,1.6,1.7,2.5,3.3,2.4
		c1.5-0.1,2.6-0.9,3-2.5C328.4,319.5,328.4,318.9,328.4,318.5z"/>
	<path class="st0" d="M338.3,324.7c0,1.6-0.1,2.9-0.1,4.2c0,0.6,0,1.3-0.7,1.5c-0.8,0.3-1.7,0.3-2.5-0.1c-0.2-0.1-0.4-0.4-0.4-0.6
		c-0.1-0.4-0.2-0.9-0.2-1.3c0-5.2,0-10.4,0-15.6c0-0.6,0.2-1.2,0.4-1.8c1.4-0.4,2.7-0.6,3.9,0.6c0.4-0.2,0.7-0.3,1.1-0.5
		c3.3-1.9,7.8-0.1,9.1,3.9c0.7,2.1,0.7,4.2,0.1,6.2c-1.4,4.7-6.2,5.8-9.5,3.9C339.2,325.1,338.9,325,338.3,324.7z M345.3,318.2
		c-0.2-0.8-0.3-1.5-0.6-2.3c-0.5-1.3-1.5-2-2.8-2c-1.4,0-2.5,0.7-3.1,2c-0.7,1.6-0.7,3.2,0,4.8c0.6,1.3,1.7,1.9,3.2,1.8
		c1.4-0.1,2.3-0.8,2.7-2C345.1,319.8,345.2,319,345.3,318.2z"/>
	<path class="st0" d="M246.3,321.5c-0.2,0.4-0.3,0.9-0.6,1.3c-1.9,2.4-4.4,3.4-7.4,3.4c-5.4-0.1-9.2-3.8-9.7-9.2
		c-0.1-1.9,0-3.7,0.6-5.5c2.6-7.2,12-8.2,16.3-3.1c0.3,0.3,0.5,0.7,0.7,1c-0.8,1.4-0.8,1.4-2.7,2.1c-0.5-0.4-1-0.9-1.5-1.3
		c-2.9-2.4-8-1.5-8.9,3.4c-0.3,1.5-0.3,3,0.1,4.4c1,4.2,5.5,5.7,8.9,3.1c0.1-0.1,0.1-0.1,0.2-0.2C244,319.5,244.3,319.5,246.3,321.5
		z"/>
	<path class="st0" d="M280.2,311.8c1.1-0.4,1.7-0.7,2.4-1c3.4-1.2,6.5,0.7,6.9,4.3c0,0.2,0,0.3,0,0.5c0,2.8,0,5.6,0,8.4
		c0,1.4-0.5,1.8-1.9,1.8c-1.4,0-1.9-0.4-2-1.8c-0.1-1.8,0-3.7,0-5.5c0-0.7,0-1.4,0-2.1c-0.1-1.3-0.7-2-1.6-2.2
		c-1.3-0.3-2.7,0.1-3.2,1.3c-0.4,0.9-0.6,1.8-0.6,2.8c-0.1,1.7,0,3.3,0,5c0,0.5,0,1.1-0.1,1.6c-0.1,0.4-0.5,0.8-0.8,0.9
		c-0.6,0.2-1.2,0.1-1.8,0.1c-0.6-0.1-1-0.5-1.1-1c-0.1-0.4-0.1-0.9-0.1-1.3c0-5.2,0-10.4,0-15.5c0-0.2,0-0.4,0-0.5
		c0.1-1.3,0.5-1.7,1.8-1.8c1.8-0.1,2.1,0.3,2.2,2.1C280.2,309,280.2,310.2,280.2,311.8z"/>
	<path class="st0" d="M255.8,325.3c-1.1,0.6-2.6,0.9-4.3,0.7c-2.5-0.3-4.1-1.8-4.4-4.1c-0.2-2.2,1-3.9,3.4-4.7
		c0.8-0.3,1.7-0.3,2.6-0.5c0.8-0.2,1.7-0.4,2.5-0.7c0.6-0.2,0.6-1.2,0.1-1.6c-0.4-0.3-0.9-0.5-1.4-0.5c-1.3-0.2-2.4,0.3-3.6,0.6
		c-1.4,0.4-1.9,0.1-2.4-1.2c-0.2-0.7-0.1-1.2,0.6-1.6c2.7-1.3,5.5-1.9,8.4-0.8c1.7,0.6,2.8,1.9,2.9,3.7c0.1,3.2,0.1,6.5,0,9.7
		c0,1-0.5,1.4-1.5,1.4C257.7,325.8,256.9,325.5,255.8,325.3z M255.8,319c-1.3,0.3-2.5,0.5-3.5,0.8c-0.7,0.2-1.2,0.9-1.2,1.6
		c0,0.6,0.6,1.3,1.3,1.5c0.3,0.1,0.7,0.1,1,0.1c0.9-0.1,1.7-0.4,2.2-1.2C256.2,321,256.2,320.2,255.8,319z"/>
	<path class="st0" d="M263.5,321.5c1.1,0.4,2.2,0.9,3.2,1.2c1,0.4,2.1,0.3,3.1-0.1c0.5-0.2,0.9-0.7,0.8-1.2
		c-0.1-0.4-0.5-0.7-0.8-0.9c-0.4-0.2-1-0.3-1.5-0.4c-1.3-0.3-2.6-0.6-3.8-1c-1.6-0.6-2.5-1.8-2.6-3.6c-0.1-1.8,0.7-3.3,2.4-4.1
		c3.1-1.5,6.1-1.1,9,0.7c0.6,0.4,0.7,1,0.4,1.6c-0.5,0.8-1.2,1.4-1.9,1.1c-0.5-0.2-1-0.4-1.4-0.6c-1.2-0.6-2.4-0.5-3.6-0.3
		c-0.3,0.1-0.7,0.5-0.8,0.9c-0.2,0.5,0.2,0.8,0.6,1c0.6,0.2,1.2,0.3,1.8,0.5c1.2,0.3,2.4,0.5,3.5,1c3.8,1.4,3.4,5.8,0.9,7.6
		c-0.5,0.4-1,0.7-1.6,0.9c-2.8,0.8-5.6,0.7-8.1-0.9c-1.4-0.8-1.4-1.4-0.3-2.7C262.9,321.9,263.2,321.7,263.5,321.5z"/>
	<path class="st0" d="M268.2,270c-1.3,0.1-2.2-0.4-2.8-1.5c-0.4-0.7-0.7-1.4-1-2.1c-0.8-1.8-1.7-3.5-3.2-4.8c-0.5-0.5-1-1-0.8-1.8
		c0.3-0.8,1-0.9,1.7-1c0.7-0.1,1.4,0,2.1-0.1c1.7-0.1,3.5-0.2,5.2-0.4c1.6-0.2,2.5,0.3,3.1,1.8c0.7,1.8,1.4,3.6,2.1,5.4
		c0.3,0.8,0.2,1.6-0.5,2.1C272.4,269,270.4,269.8,268.2,270z"/>
	<path class="st0" d="M133.3,276.2c-0.1,0.3-0.1,0.5-0.1,0.8c-0.9,2.8-1.7,5.7-2.6,8.5c-0.1,0.3-0.3,0.6-0.4,1
		c-0.3,0.6-0.8,1-1.4,0.8c-1.8-0.5-3.5-1.1-5.2-1.7c-0.6-0.2-0.8-1-0.6-1.6c0.1-0.2,0.1-0.4,0.2-0.5c1.7-2,1.8-4.5,2-6.9
		c0.2-2.2,1.5-3.5,3.2-4.5c0.5-0.3,1-0.3,1.5,0c1.4,0.8,2.4,2,3.3,3.3C133.3,275.7,133.3,276,133.3,276.2z"/>
	<path class="st0" d="M136.7,273.2c-0.7-0.4-1.5-0.6-2.1-1.1c-2.5-2-2.6-4,0-6c1.6-1.2,3.3-2.4,4.9-3.5c1.6-1,2.3-0.9,3.7,0.3
		c0.3,0.2,0.5,0.5,0.7,0.7c0.5,0.6,0.7,1.3,0.4,1.9c-1.3,2.5-2.9,4.8-5.2,6.5C138.4,272.6,137.5,272.8,136.7,273.2z"/>
	<path class="st0" d="M215.6,358.9c-0.3,0.6-0.5,1.3-0.8,1.9c-0.2,0.6-0.5,1.1-0.7,1.7c-0.2,0.6-0.6,1.1-1.3,1
		c-0.6,0-0.9-0.4-1.1-0.9c-0.3-0.9-0.7-1.8-1-2.7c-0.2-0.4-0.4-0.7-0.9-1.1c0,0.7-0.1,1.5-0.1,2.2c0,0.6,0,1.2-0.2,1.8
		c-0.1,0.5-0.5,0.7-1,0.6c-0.3-0.1-0.6-0.3-0.8-0.6c-0.1-0.2-0.1-0.5-0.1-0.8c0-2.6,0-5.3,0-7.9c0-0.2,0.1-0.5,0.3-0.9
		c0.6-0.1,1.3-0.1,1.9-0.2c0.3,0.3,0.5,0.5,0.6,0.7c0.4,1.1,0.8,2.1,1.2,3.2c0.3,0.9,0.7,1.8,1.1,2.6c0.7,0.1,0.8-0.4,1-0.8
		c0.7-1.8,1.3-3.6,2-5.3c0.8-0.6,1.6-0.5,2.4-0.2c0.1,0.3,0.2,0.6,0.2,1c0,2.6,0,5.3,0,7.9c0,0.3,0,0.6-0.2,0.7
		c-0.2,0.2-0.6,0.4-0.9,0.4c-0.3,0-0.8-0.3-0.8-0.5c-0.1-0.9-0.1-1.7-0.2-2.6c0-0.5-0.1-1-0.1-1.5
		C216,358.9,215.8,358.9,215.6,358.9z"/>
	<path class="st0" d="M346.4,358.5c-0.5,1.3-1,2.7-1.6,4.1c-0.2,0.5-0.5,0.9-1.2,0.9c-0.6,0-1-0.3-1.2-0.8c-0.3-0.7-0.6-1.5-0.9-2.2
		c-0.3-0.7-0.6-1.4-0.8-2.2c-0.7,0.5-0.4,1-0.4,1.5c-0.1,0.6,0,1.2,0,1.8c0,0.5-0.1,1-0.1,1.5c-1.2,0.4-1.7,0.3-1.7-0.4
		c-0.1-3.1-0.3-6.1,0.1-9.2c0-0.1,0.1-0.1,0.1-0.2c2-0.3,2.1-0.3,2.7,1.4c0.7,1.7,1.3,3.4,2.1,5.5c0.3-0.6,0.6-0.9,0.7-1.2
		c0.7-1.9,1.4-3.8,2.1-5.6c0.5-0.1,0.8-0.2,1.2-0.2c0.3,0,0.7,0.1,0.9,0.1c0.2,0.2,0.4,0.4,0.4,0.5c0.1,3,0.1,6,0.1,8.9
		c0,0.5-0.4,0.8-0.9,0.8c-0.6,0.1-1-0.3-1.1-0.9c-0.1-1.3-0.1-2.6-0.1-4c0-0.1,0-0.2-0.1-0.2C346.7,358.4,346.6,358.5,346.4,358.5z"
		/>
	<path class="st0" d="M192.8,358.3c0,3-2.5,5.5-5.5,5.6c-3,0-5.6-2.6-5.6-5.5c0.1-3.2,2.6-5.3,5.4-5.3
		C190.2,353,192.6,355.1,192.8,358.3z M190.7,358.5c0.1-2.1-1.3-3.6-3.3-3.6c-1.9,0-3.3,1.3-3.4,3.2c-0.1,2,1,3.6,3.2,3.8
		C189.2,362.1,190.7,360.4,190.7,358.5z"/>
	<path class="st0" d="M278.5,357.9c0,1.6,0,3.1,0,4.7c0,0.2-0.1,0.6-0.3,0.7c-0.3,0.2-0.7,0.3-1,0.2c-0.3-0.1-0.6-0.5-0.6-0.7
		c-0.1-3.1-0.2-6.1,0.1-9.2c1-0.6,1.8-0.5,2.3,0.4c0.8,1.3,1.5,2.6,2.3,3.8c0.3,0.4,0.3,1,1.1,1c0.5-1.7-0.2-3.6,0.5-5.3
		c1.3-0.2,1.7-0.1,1.7,0.8c0,2.7,0,5.4,0,8.1c0,0.3-0.3,0.9-0.6,1c-0.4,0.1-1,0-1.5-0.2c-0.3-0.2-0.6-0.6-0.8-1
		c-0.7-1.2-1.4-2.4-2.2-3.6c-0.2-0.3-0.5-0.7-0.7-1C278.8,357.7,278.6,357.8,278.5,357.9z"/>
	<path class="st0" d="M261.8,358.5c0-3.2,2.2-5.4,5.5-5.5c3.1,0,5.3,2.1,5.5,5.2c0.2,3.6-2.8,5.6-5.3,5.7
		C264.4,364,261.9,361.6,261.8,358.5z M267.4,355c-2-0.1-3.4,1.4-3.5,3.5c-0.1,1.9,1.7,3.6,3.5,3.6c1.8,0,3.3-1.6,3.4-3.4
		C270.8,356.8,269.4,354.9,267.4,355z"/>
	<path class="st0" d="M196.5,353.5c1.6-0.5,2.9-0.4,4.2-0.2c2.5,0.3,3.6,2.8,2.3,5c-0.3,0.5-0.7,1-1.1,1.5c0.4,0.7,0.7,1.3,1.1,1.9
		c0.3,0.5,0.6,1,0.9,1.6c-1.2,0.6-1.7,0.6-2.1,0c-0.5-0.6-0.9-1.3-1.3-1.9c-0.3-0.5-0.7-0.9-1.1-1.3c-0.7,0.2-0.7,0.7-0.8,1.1
		c-0.1,0.6-0.1,1.2-0.2,1.8c-0.1,0.5-0.4,0.7-0.9,0.7c-0.5,0-0.8-0.2-0.9-0.7c0-0.1,0-0.2,0-0.3
		C196.4,359.6,196.4,356.6,196.5,353.5z M198.9,357.8c0.8,0.2,1.7,0.4,2.2-0.6c0.2-0.4,0.2-1.1,0-1.5c-0.5-1-1.4-0.8-2.2-0.6
		C198.6,356.4,198.6,356.4,198.9,357.8z"/>
	<path class="st0" d="M228.7,353.4c1.6-0.1,1.8,0,1.9,0.7c0.2,2.3,0.3,4.6-0.2,6.8c-0.4,1.7-1.8,2.8-3.6,2.9c-1.7,0.1-3.4-0.9-4-2.4
		c-0.2-0.5-0.4-1-0.4-1.5c0-1.9,0-3.9,0-5.8c0-0.6,0.5-1,1-0.9c0.6,0,1,0.4,1,1c0.1,1.2,0.1,2.5,0.1,3.7c0,0.8,0,1.6,0.1,2.4
		c0.1,0.9,0.9,1.6,1.8,1.7c0.9,0.1,2-0.7,2.1-1.6c0.1-0.7,0.1-1.4,0.1-2.1C228.7,356.7,228.7,355.1,228.7,353.4z"/>
	<path class="st0" d="M291.2,359.3c0,0.8,0,1.4,0,2c0.7,0.7,1.5,0.4,2.3,0.5c0.5,0.1,1,0.1,1.5,0.3c0.2,0.1,0.3,0.4,0.3,0.6
		c0,0.2-0.2,0.4-0.3,0.6c0,0.1-0.2,0.1-0.2,0.1c-1.8,0.3-3.6,0.3-5.4-0.1c-0.6-2.3-0.6-8,0-10.1c1.7-0.4,3.4-0.2,5.2-0.1
		c0.5,0,0.8,0.4,0.7,0.9c-0.1,0.3-0.4,0.7-0.6,0.7c-1,0.1-2.1,0.2-3.3,0.3c0,0.7-0.1,1.4-0.1,2.1c1.1,0.1,2.1,0.1,3,0.2
		c0.5,0,0.9,0.2,0.9,0.7c0.1,0.5-0.3,0.9-1,1C293.3,359.2,292.4,359.2,291.2,359.3z"/>
	<path class="st0" d="M318.1,355.1c0,0.8,0,1.4,0,2.1c1.1,0.1,2.2,0.1,3.2,0.2c0.3,0,0.6,0.4,0.7,0.6c0.1,0.5-0.2,0.9-0.7,0.9
		c-1,0.1-1.9,0.2-3.1,0.2c-0.1,0.7-0.2,1.3-0.3,2.1c0.6,0.2,1.1,0.3,1.6,0.4c0.6,0.1,1.2,0.1,1.8,0.1c0.5,0.1,0.8,0.3,0.9,0.8
		c0,0.5-0.3,0.8-0.8,0.9c-1.7,0.2-3.5,0.3-5.3-0.1c-0.6-1.1-0.4-2.3-0.4-3.4c0-1.1,0-2.1,0-3.2c0-1.1-0.2-2.3,0.4-3.5
		c1.8-0.4,3.6-0.3,5.4-0.1c0.2,0,0.5,0.5,0.5,0.8c0,0.3-0.3,0.7-0.6,0.7C320.5,355,319.5,355,318.1,355.1z"/>
	<path class="st0" d="M252.5,363.3c-1.6,0.2-1.6,0.2-2.8-1.9c-1,0-2.2,0-3.5,0c-0.3,0.4-0.6,0.9-0.9,1.5c-0.4,0.7-1,0.8-1.9,0.4
		c0-0.3-0.1-0.7,0-1c1-2.6,2-5.3,3-7.9c0.1-0.3,0.3-0.6,0.5-0.9c0.4-0.5,1.5-0.5,1.9,0c0.3,0.3,0.5,0.7,0.6,1.2
		c1,2.5,1.9,5.1,2.9,7.6C252.5,362.6,252.5,362.9,252.5,363.3z M249.1,359.4c-0.3-1.1-0.4-2.1-1.3-3.1c-0.4,1.1-0.9,1.9-0.9,3.1
		C247.7,359.4,248.3,359.4,249.1,359.4z"/>
	<path class="st0" d="M334.7,363.2c-1,0.6-1.6,0.5-2-0.2c-0.3-0.4-0.5-0.9-0.7-1.5c-0.6-0.1-1.2-0.1-1.8-0.1c-0.6,0-1.2,0-1.8,0
		c-0.3,0.6-0.5,1-0.8,1.5c-0.5,0.8-0.5,0.8-1.9,0.5c0-0.2-0.1-0.4-0.1-0.5c1-2.9,2.1-5.7,3.2-8.6c0.2-0.6,0.7-1.1,1.4-1
		c0.4,0.1,0.7,0.3,1.1,0.5c0.1,0,0.1,0.1,0.1,0.2C332.5,357,333.7,360,334.7,363.2z M330.4,356.7c-0.9,0.9-1.5,1.6-1.2,2.6
		c0.7,0.2,1.3,0.4,2-0.3C330.9,358.3,330.7,357.5,330.4,356.7z"/>
	<path class="st0" d="M173,353.2c1.7,0,3.2,0,4.8,0c0.7,0,1,0.4,1,1c-0.1,0.5-0.4,0.8-0.9,0.8c-0.9,0.1-1.9,0.1-2.7,0.2
		c-0.7,0.7-0.5,1.4-0.4,2c0.3,0.2,0.4,0.3,0.5,0.3c0.8,0.1,1.6,0.1,2.3,0.2c0.7,0.1,1.1,0.5,1,1c-0.1,0.5-0.4,0.7-0.9,0.8
		c-0.5,0.1-1,0.1-1.6,0.1c-0.4,0.1-0.8,0.2-1.2,0.2c-0.7,1-0.3,2-0.5,2.9c-0.1,0.3-0.3,0.7-0.5,0.8c-0.3,0.1-0.6,0-0.9,0
		C172.5,361.6,172.4,356.1,173,353.2z"/>
	<path class="st0" d="M309.5,355.4c0,1.9,0,3.6,0,5.4c0,0.7,0,1.4-0.1,2.1c-0.1,0.5-0.5,0.7-0.9,0.7c-0.5,0-0.9-0.2-1-0.7
		c-0.1-0.9-0.1-1.7-0.1-2.6c-0.1-1.6,0.1-3.3-0.2-5c-0.7-0.1-1.3-0.2-1.9-0.4c-0.3-0.1-0.5-0.5-0.6-0.7c-0.1-0.5,0.2-0.9,0.7-0.9
		c2,0,4,0,6,0c0.5,0,0.8,0.4,0.7,0.9c-0.1,0.3-0.3,0.6-0.6,0.7C311,355.1,310.3,355.2,309.5,355.4z"/>
	<path class="st0" d="M237.1,361.5c1,0.1,2,0.2,2.9,0.4c0.4,0.1,0.8,0.4,0.7,0.9c-0.1,0.3-0.4,0.7-0.6,0.7c-1.6,0.2-3.3,0.4-5-0.2
		c-0.1-0.4-0.2-0.9-0.2-1.3c0-2.4,0-4.7,0-7.1c0-0.4,0-0.9,0.2-1.3c0.1-0.2,0.6-0.4,0.9-0.4c0.2,0,0.5,0.2,0.6,0.4
		c0.2,0.4,0.2,0.8,0.2,1.3c0,1.6,0,3.2,0,4.7C236.9,360.2,237,360.8,237.1,361.5z"/>
</g>
</svg>
